<svg xmlns="http://www.w3.org/2000/svg" viewBox="0 0 4.233 4.233" height="16" width="16" source="https://github.com/OBKF/Godot-Trail-System">
	<path d="M2.38 293.033a2.106 2.106 0 0 0-1.112.269 1.96 1.96 0 0 0-.926 2.045c.17.76.804 1.3 1.495 1.38.692.072 1.342-.327 1.594-.885-.357.498-1.02.695-1.523.529-.505-.158-.857-.672-.846-1.119-.006-.445.334-.88.688-.973a.766.766 0 0 1 .32-.03 1.145 1.145 0 0 1-.015-.183 1.145 1.145 0 0 1 .595-1.001 2.085 2.085 0 0 0-.27-.032zm1.547 1.033a.727.727 0 0 1-.727.727.727.727 0 0 1-.727-.727.727.727 0 0 1 .727-.727.727.727 0 0 1 .727.727z" style="vector-effect:none;fill:#a5b7f3;fill-opacity:1;stroke:none;stroke-width:.26499999;stroke-linejoin:round;stroke-miterlimit:4;stroke-dasharray:none;stroke-opacity:1" transform="translate(0 -292.767)"/>
</svg>
